<?xml version="1.0" standalone="no"?>
<!DOCTYPE svg PUBLIC "-//W3C//DTD SVG 20010904//EN"
 "http://www.w3.org/TR/2001/REC-SVG-20010904/DTD/svg10.dtd">
<svg version="1.0" xmlns="http://www.w3.org/2000/svg"
 width="800.000000pt" height="800.000000pt" viewBox="0 0 800.000000 800.000000"
 preserveAspectRatio="xMidYMid meet">

<g transform="translate(0.000000,800.000000) scale(0.100000,-0.100000)"
fill="#000000" stroke="none">
<path d="M2435 7958 c4 -39 16 -234 19 -301 1 -15 6 -31 11 -35 19 -14 18 -73
-3 -96 -10 -11 -24 -40 -31 -63 -12 -43 -52 -84 -135 -139 -53 -36 -126 -105
-126 -120 0 -19 -65 -71 -105 -84 -23 -8 -33 -15 -25 -20 7 -4 -1 -13 -24 -24
-23 -11 -38 -26 -42 -43 -7 -25 -16 -39 -60 -86 -11 -12 -26 -41 -32 -64 -7
-24 -17 -43 -22 -43 -6 0 -10 -8 -10 -18 0 -20 -39 -62 -58 -62 -7 0 -13 -4
-13 -10 -1 -5 -2 -14 -3 -19 0 -5 -4 -13 -8 -17 -5 -4 -8 -15 -8 -25 0 -10
-13 -38 -30 -62 -16 -25 -30 -48 -30 -52 0 -19 -71 -112 -95 -125 -34 -18 -53
-50 -29 -50 13 0 14 -3 4 -15 -8 -9 -9 -25 -5 -42 11 -39 12 -55 3 -74 -5 -11
-2 -22 8 -30 29 -24 37 -63 35 -177 -1 -122 -20 -190 -58 -210 -10 -6 -50 -11
-88 -13 -39 -1 -77 -5 -85 -10 -14 -6 -222 -25 -380 -34 -30 -2 -100 -11 -156
-21 l-101 -17 4 -36 c6 -49 6 -71 -2 -102 -14 -53 65 -61 410 -38 94 6 211 12
260 13 50 1 104 5 121 9 16 4 41 3 55 -2 13 -5 18 -10 12 -10 -7 -1 -13 -8
-13 -16 0 -8 -9 -15 -21 -15 -11 0 -39 -20 -63 -43 -40 -41 -43 -48 -55 -133
-19 -133 -16 -223 15 -429 7 -48 43 -135 55 -135 5 0 9 -7 9 -15 0 -8 5 -15
10 -15 14 0 13 16 -2 40 -10 15 -10 22 0 32 11 11 16 10 26 -4 21 -29 39 -21
75 32 37 54 46 58 77 35 17 -13 18 -14 1 -15 -10 0 -21 -10 -26 -22 -5 -13
-21 -36 -35 -53 -14 -16 -26 -34 -26 -39 0 -5 -3 -6 -6 -3 -4 3 -15 -4 -25
-17 -15 -19 -17 -30 -9 -57 6 -19 10 -36 10 -39 0 -3 -75 -6 -168 -8 -92 -1
-221 -7 -287 -13 -132 -11 -266 -19 -393 -22 -75 -2 -85 -4 -102 -26 -10 -14
-18 -39 -18 -55 0 -17 -1 -35 -3 -41 -6 -21 12 -83 29 -98 30 -27 138 -37 527
-47 204 -6 386 -15 406 -20 34 -9 36 -12 48 -76 l12 -67 -34 -51 -34 -51 -74
2 c-41 1 -101 -2 -134 -7 -207 -30 -326 -38 -408 -26 -57 7 -124 -9 -137 -35
-5 -9 -12 -35 -15 -58 -4 -32 -2 -41 10 -41 8 0 15 -6 15 -12 1 -34 100 -112
100 -79 0 6 9 11 20 11 11 0 20 -4 20 -10 0 -5 11 -10 25 -10 18 0 25 -5 25
-20 0 -11 5 -20 10 -20 6 0 10 -6 10 -14 0 -10 -11 -12 -46 -8 -33 3 -49 1
-55 -9 -6 -11 -9 -8 -9 9 0 12 -4 22 -10 22 -8 0 -15 -28 -12 -52 1 -3 -5 -12
-13 -18 -8 -7 -15 -23 -15 -37 0 -20 -10 -29 -57 -49 -32 -14 -101 -50 -154
-80 -52 -30 -123 -65 -157 -78 -56 -22 -65 -23 -90 -10 -15 7 -23 14 -19 14 5
0 -14 21 -41 48 -45 43 -49 51 -47 87 2 22 4 40 5 40 1 0 4 12 6 27 6 36 -9
45 -91 53 -22 2 -64 7 -92 11 -39 5 -53 3 -53 -6 0 -7 -7 -10 -15 -6 -9 3 -15
0 -15 -10 0 -13 -9 -15 -40 -12 l-40 4 0 -1858 0 -1858 1873 0 1872 0 34 50
c31 45 35 48 47 32 7 -9 13 -24 14 -32 0 -12 -2 -12 -9 -2 -6 10 -10 9 -14 -7
-3 -14 -1 -19 6 -14 7 4 6 -1 -2 -10 -13 -16 115 -17 2083 -17 l2096 0 0 3995
0 3995 -1719 0 c-1544 0 -1719 -2 -1725 -16 -4 -10 -2 -13 6 -8 7 5 9 0 6 -14
-4 -12 -2 -22 3 -22 5 0 9 -20 9 -45 0 -27 5 -45 11 -45 8 0 8 -4 2 -12 -10
-13 -12 -68 -3 -69 11 -1 46 16 59 29 13 13 18 11 37 -12 21 -24 42 -37 31
-18 -3 4 18 5 45 3 39 -2 52 -7 55 -22 6 -21 29 -26 36 -6 3 11 26 4 65 -19 2
-1 -2 -12 -8 -24 -11 -21 -10 -22 13 -16 26 6 44 -15 30 -36 -4 -7 -1 -8 6 -4
16 10 51 -22 51 -46 0 -16 5 -17 39 -12 37 6 38 5 44 -26 4 -17 11 -29 16 -26
5 4 12 -13 16 -36 6 -36 9 -40 20 -25 11 15 13 13 22 -16 l10 -32 11 25 11 25
0 -27 c1 -21 6 -28 20 -28 10 0 24 -7 31 -15 17 -21 34 -19 25 3 -5 13 -3 14
5 6 9 -9 9 -17 1 -32 -15 -28 -14 -32 10 -32 14 0 19 -5 16 -14 -3 -8 3 -23
14 -35 11 -11 18 -23 17 -25 -2 -2 0 -8 5 -12 4 -4 7 -2 7 4 0 7 7 12 15 12 8
0 15 -4 15 -8 0 -5 6 -17 14 -28 15 -19 15 -19 30 1 15 20 15 20 16 -2 0 -12
-4 -23 -10 -25 -16 -5 4 -53 24 -56 16 -3 18 1 13 27 -4 17 -2 31 3 31 11 0
24 -85 15 -100 -8 -13 4 -70 15 -70 4 0 10 9 13 21 9 34 26 12 25 -32 0 -28 5
-44 18 -54 13 -10 15 -14 5 -15 -11 0 -11 -4 1 -22 8 -13 15 -50 16 -83 2 -33
7 -62 12 -63 6 -2 7 -9 3 -15 -10 -16 -10 -50 0 -58 4 -3 9 -39 12 -80 2 -41
4 -74 5 -74 1 0 4 -56 6 -125 1 -69 6 -145 10 -170 4 -25 8 -148 10 -275 4
-327 12 -626 18 -725 10 -143 15 -169 39 -185 19 -12 185 -44 249 -47 13 -1
28 -5 34 -10 7 -5 16 -8 20 -7 29 5 50 -7 94 -52 28 -28 53 -63 56 -78 3 -14
10 -37 15 -51 7 -21 28 -127 54 -275 10 -54 34 -318 36 -390 3 -113 1 -126
-23 -160 -19 -29 -31 -35 -97 -48 -78 -16 -145 -24 -266 -33 -79 -6 -143 -21
-163 -37 -8 -6 -24 -32 -37 -58 -71 -139 -238 -155 -259 -24 -4 21 -9 41 -12
44 -9 9 -151 14 -188 7 -32 -6 -42 -24 -24 -42 4 -3 4 -12 1 -20 -3 -8 0 -14
6 -14 6 0 11 -5 11 -10 0 -6 4 -16 10 -23 82 -100 92 -128 90 -247 -1 -105 -3
-131 -12 -145 -3 -6 -8 -30 -9 -55 -3 -39 -20 -88 -48 -140 -12 -23 -44 -23
-98 -1 -105 43 -498 163 -668 205 -99 24 -198 52 -220 63 -51 26 -272 107
-347 128 -31 8 -60 19 -63 24 -3 5 7 19 22 30 16 11 33 25 40 31 7 5 14 10 17
10 3 0 16 11 30 25 14 14 32 25 40 25 8 0 18 9 21 20 3 11 10 20 14 20 4 0 14
18 21 41 8 23 20 43 27 46 7 3 13 18 13 33 0 16 11 41 23 57 31 36 89 143 117
213 12 30 33 81 45 112 33 79 42 128 22 128 -8 0 -17 -13 -21 -32 -5 -26 -9
-30 -16 -18 -8 12 -10 11 -8 -5 0 -11 0 -29 0 -39 -2 -19 -3 -19 -22 -1 -13
12 -18 25 -14 38 5 16 2 18 -16 12 -14 -5 -20 -3 -16 3 8 13 -3 42 -16 42 -6
0 -8 -7 -4 -15 3 -8 1 -15 -5 -15 -6 0 -9 15 -8 33 2 17 -3 44 -10 59 -8 16
-10 34 -6 45 16 37 14 50 -10 61 -18 8 -26 22 -31 52 -4 22 -11 43 -15 46 -5
3 -9 15 -9 27 0 24 -32 71 -49 73 -6 1 -16 2 -22 3 -5 0 -7 6 -4 11 7 12 -12
40 -26 40 -14 0 -10 -33 6 -54 25 -33 17 -41 -10 -10 -15 17 -24 37 -21 48 7
25 -11 66 -28 66 -8 0 -23 11 -34 25 -11 14 -26 25 -33 25 -9 0 -10 3 -2 11
13 13 -13 49 -34 49 -7 0 -13 12 -13 26 0 18 -4 24 -13 21 -8 -3 -20 -1 -28 3
-10 7 -7 13 14 30 55 43 71 127 31 161 -8 6 -14 17 -14 24 0 6 -6 12 -12 12
-7 0 -25 4 -39 7 -18 5 -31 2 -42 -8 -20 -20 -34 -20 -72 0 -16 8 -37 13 -47
11 -9 -3 -22 1 -29 9 -6 8 -18 14 -25 14 -8 0 -14 5 -14 10 0 6 -8 10 -17 11
-11 0 -13 3 -5 6 20 8 15 35 -6 29 -11 -4 -29 3 -44 16 -24 21 -26 29 -24 93
1 39 6 78 10 87 4 9 5 22 1 28 -4 6 5 23 20 38 23 22 25 28 11 30 -11 3 -15
10 -11 22 3 11 1 28 -4 39 -7 12 -7 22 -1 26 5 3 7 12 4 20 -4 8 1 18 10 21
16 6 23 25 9 23 -22 -4 -33 3 -33 19 0 10 -8 29 -17 42 -10 14 -19 34 -21 45
-1 11 -7 24 -12 29 -15 15 -12 55 5 72 10 11 12 21 5 39 -6 17 -5 27 5 35 10
8 13 21 8 39 -8 36 -11 37 -28 15 -13 -17 -14 -17 -6 12 9 33 4 48 -16 50 -31
2 -34 5 -28 24 5 16 2 20 -17 20 -26 1 -58 22 -58 39 0 6 -4 11 -9 11 -5 0
-16 3 -24 6 -8 3 -21 -2 -30 -10 -13 -14 -15 -13 -20 4 -3 12 -14 20 -25 20
-11 0 -25 7 -32 15 -9 11 -9 15 -1 15 7 0 9 5 5 12 -5 8 -11 6 -20 -6 -7 -10
-15 -13 -18 -7 -4 6 -55 8 -131 5 -91 -3 -126 0 -132 9 -12 19 -49 36 -59 28
-5 -5 -31 -11 -59 -14 -27 -3 -42 -3 -32 1 16 7 16 9 -3 25 -17 14 -20 14 -20
2 0 -8 -5 -15 -11 -15 -6 0 -9 6 -6 14 3 8 1 17 -6 20 -8 3 -8 5 -1 5 6 1 9
11 7 25 -3 14 1 25 10 29 11 4 14 0 11 -16 -2 -12 2 -6 10 13 8 19 15 27 15
18 1 -22 21 -24 21 -3 0 18 16 20 24 3 3 -7 3 -1 0 14 -5 24 -2 29 28 41 31
13 32 14 11 21 -26 8 -30 21 -9 29 11 4 12 14 5 44 -13 59 -12 64 16 57 15 -4
25 -2 25 5 0 6 -4 11 -10 11 -18 0 -10 19 11 25 17 6 19 9 8 16 -11 6 -11 11
-2 20 6 6 9 18 6 25 -5 14 10 19 57 15 23 -2 26 2 27 31 1 55 3 59 13 53 6 -4
8 -16 4 -28 -5 -17 1 -15 28 13 19 20 48 46 65 58 28 20 33 21 47 7 8 -8 17
-11 20 -6 3 5 31 12 62 16 40 5 53 10 43 16 -13 8 -12 10 10 13 5 0 13 4 17 9
4 4 16 7 26 7 10 0 21 6 24 13 2 7 22 13 44 14 39 2 53 -9 28 -21 -7 -3 7 -4
32 -1 46 5 114 -11 105 -25 -6 -10 43 -42 55 -35 5 3 14 -4 20 -15 8 -15 17
-19 31 -15 15 5 17 3 12 -11 -5 -14 -3 -16 11 -11 10 4 25 0 37 -12 11 -10 38
-24 60 -31 22 -8 50 -25 61 -39 12 -15 22 -21 25 -15 4 13 44 7 54 -8 3 -5 16
-11 30 -13 13 -3 29 -11 34 -18 6 -8 16 -12 22 -10 7 3 18 -6 24 -19 12 -25
72 -71 110 -83 31 -10 109 -91 131 -136 50 -101 67 -168 82 -312 9 -81 18
-152 21 -156 2 -5 -2 -14 -10 -21 -11 -9 -16 -7 -27 9 -7 12 -20 21 -28 21 -8
0 -29 8 -46 19 -17 10 -41 22 -55 26 -13 4 -37 18 -54 30 -16 13 -39 21 -50
19 -26 -4 -51 16 -33 27 8 5 8 9 2 9 -6 0 -19 -9 -29 -20 -23 -25 -39 -26 -26
-2 13 25 -2 47 -25 37 -11 -4 -27 -9 -38 -10 -10 -1 -23 -9 -28 -19 -5 -9 -14
-14 -19 -10 -5 3 -16 0 -24 -6 -12 -10 -15 -9 -15 4 0 20 -19 21 -48 0 -12 -8
-22 -12 -23 -7 0 4 -4 -2 -9 -15 -5 -12 -21 -27 -35 -32 -14 -5 -25 -16 -25
-24 0 -7 -8 -17 -17 -21 -17 -6 -17 -7 0 -19 20 -15 22 -27 5 -24 -17 4 -22
-40 -8 -58 10 -11 9 -14 -4 -14 -13 0 -16 -10 -16 -49 0 -37 8 -64 33 -108 18
-32 48 -98 66 -148 46 -123 58 -145 81 -145 10 0 40 -14 65 -31 27 -18 52 -28
62 -25 8 4 22 1 29 -5 9 -8 18 -8 27 -2 16 13 120 15 127 3 3 -6 16 -3 28 6
24 16 30 62 11 81 -7 7 -8 13 0 17 5 4 29 -7 52 -24 49 -35 59 -37 59 -10 0
10 9 24 20 30 11 6 20 17 20 24 0 8 6 16 14 19 12 5 17 45 17 140 0 9 4 17 9
17 5 0 11 -26 15 -57 8 -71 11 -82 17 -63 13 39 28 113 28 135 0 13 4 27 10
30 5 3 8 25 6 49 -4 53 11 158 25 167 10 6 5 100 -6 119 -3 5 -1 19 5 30 9 16
8 25 0 35 -9 11 -9 23 0 50 8 25 9 44 1 65 -6 19 -6 41 -1 61 5 17 6 39 1 48
-14 27 -21 80 -12 86 5 3 5 22 0 42 -4 21 -6 58 -5 83 2 25 0 55 -5 68 -5 13
-10 47 -11 75 -1 29 -8 61 -15 72 -7 11 -13 26 -13 33 0 8 -13 34 -30 59 -16
24 -30 55 -30 69 0 14 -11 40 -25 58 -14 18 -25 40 -25 48 0 9 -7 21 -15 28
-8 7 -15 18 -15 26 0 7 -9 19 -19 26 -11 8 -23 26 -27 41 -3 16 -24 42 -45 59
-21 17 -44 46 -51 65 -9 24 -14 29 -18 19 -4 -14 -10 -13 -38 6 -18 13 -31 30
-29 38 2 9 -3 22 -11 30 -13 12 -15 11 -10 -8 7 -27 3 -27 -23 -3 -12 11 -18
24 -15 30 9 13 -10 23 -53 28 -24 2 -42 12 -55 29 -25 34 -107 74 -151 74 -20
0 -53 9 -75 20 -22 11 -50 20 -63 20 -13 0 -44 14 -70 30 -40 25 -58 30 -110
30 -35 0 -87 6 -116 14 -58 15 -172 8 -226 -15 -16 -7 -53 -11 -81 -10 -43 2
-54 -1 -80 -26 -17 -15 -33 -33 -35 -40 -2 -6 -28 -14 -57 -17 -30 -3 -67 -15
-82 -26 -29 -21 -60 -27 -60 -11 0 4 -15 12 -32 17 -33 10 -33 10 -33 74 1 54
13 287 18 356 2 16 -7 19 -60 22 l-63 3 5 -43z m2185 -158 c0 -5 -4 -10 -10
-10 -5 0 -10 5 -10 10 0 6 5 10 10 10 6 0 10 -4 10 -10z m155 0 c-3 -5 -13
-10 -21 -10 -8 0 -12 5 -9 10 3 6 13 10 21 10 8 0 12 -4 9 -10z m-2255 -170
c0 -5 -5 -10 -11 -10 -5 0 -7 5 -4 10 3 6 8 10 11 10 2 0 4 -4 4 -10z m1220
-110 c13 -9 13 -10 0 -10 -8 0 -22 5 -30 10 -13 9 -13 10 0 10 8 0 22 -5 30
-10z m1775 -420 c-3 -5 -10 -10 -16 -10 -5 0 -9 5 -9 10 0 6 7 10 16 10 8 0
12 -4 9 -10z m-2575 -210 c0 -5 -4 -10 -9 -10 -6 0 -13 5 -16 10 -3 6 1 10 9
10 9 0 16 -4 16 -10z m-222 -249 c-2 -17 -1 -28 4 -25 13 8 9 -20 -5 -41 -13
-17 -14 -15 -20 15 -4 19 -2 38 4 46 6 7 8 18 4 24 -3 5 -1 10 6 10 7 0 10
-11 7 -29z m177 -611 c7 -12 -22 -12 -50 0 -17 7 -15 9 12 9 17 1 35 -3 38 -9z
m3375 0 c0 -5 7 -10 15 -10 22 0 32 -35 29 -99 -3 -80 -6 -95 -16 -108 -10
-13 -7 -213 3 -213 3 0 3 -54 1 -120 -3 -87 -1 -120 8 -120 7 0 5 -6 -4 -16
-9 -8 -16 -19 -16 -24 0 -11 -48 -6 -60 6 -7 8 -12 211 -9 359 1 22 -4 97 -11
166 -11 115 -11 129 5 153 9 14 21 23 26 20 5 -3 9 0 9 5 0 6 5 11 10 11 6 0
10 -4 10 -10z m244 -109 c11 -4 15 -10 10 -14 -14 -8 -54 3 -54 14 0 11 17 11
44 0z m-3554 -115 c0 -16 -7 -26 -22 -29 -29 -8 -31 -5 -17 27 15 33 39 34 39
2z m4581 -155 l39 -39 0 -85 c0 -94 -8 -125 -42 -162 -46 -49 -103 -33 -149
42 -31 51 -33 199 -3 240 19 26 50 39 98 42 10 0 36 -16 57 -38z m-5261 -10
c0 -5 -9 -7 -20 -4 -11 3 -20 7 -20 9 0 2 9 4 20 4 11 0 20 -4 20 -9z m46 -18
c-10 -10 -19 5 -10 18 6 11 8 11 12 0 2 -7 1 -15 -2 -18z m-85 -20 c-8 -15
-10 -15 -11 -2 0 17 10 32 18 25 2 -3 -1 -13 -7 -23z m20 -32 c-7 -5 -11 -13
-7 -19 3 -5 -1 -15 -9 -22 -13 -10 -15 -9 -15 12 0 29 7 38 29 38 13 0 13 -2
2 -9z m81 -24 c-4 -33 4 -34 29 -4 16 18 20 20 28 7 7 -9 6 -19 -1 -27 -8 -10
-6 -13 6 -13 9 0 16 8 16 20 0 21 23 18 47 -6 7 -7 22 -10 34 -7 12 4 25 0 30
-8 7 -11 9 -10 9 5 0 12 5 16 15 13 8 -4 17 -2 21 4 3 5 14 7 25 4 14 -5 19
-2 19 11 0 13 5 11 25 -10 25 -27 45 -30 53 -8 2 7 -2 10 -12 6 -9 -3 -16 -1
-16 5 0 6 8 11 18 12 9 0 27 2 40 3 13 2 25 -1 28 -6 8 -12 68 -10 82 4 10 10
14 8 18 -10 4 -12 10 -19 15 -16 5 3 7 9 5 13 -3 4 5 8 17 8 12 1 26 8 32 15
5 8 24 14 40 15 27 2 28 1 8 -7 -27 -11 -30 -18 -5 -16 9 0 16 -5 14 -11 -1
-7 5 -13 13 -13 8 0 15 5 15 10 0 6 7 10 15 10 8 0 15 -4 15 -10 0 -5 5 -10
11 -10 6 0 9 6 6 13 -3 8 -1 20 4 28 7 11 9 11 9 -3 0 -21 11 -23 28 -6 9 9
12 7 13 -12 1 -14 1 -29 0 -34 -1 -5 4 -4 12 2 11 9 14 8 14 -6 0 -9 -5 -20
-11 -24 -8 -5 -7 -8 1 -8 7 0 21 9 32 21 18 20 21 20 42 5 13 -9 18 -16 11
-16 -6 0 -12 -9 -12 -20 0 -11 -7 -23 -15 -26 -8 -4 -15 -14 -16 -23 0 -10 -2
-11 -6 -3 -7 19 -19 14 -19 -8 0 -11 5 -20 10 -20 5 0 0 -10 -12 -23 -12 -13
-22 -27 -22 -31 0 -5 -11 -19 -25 -32 -20 -18 -24 -29 -19 -50 6 -22 4 -26 -8
-21 -12 4 -17 -2 -20 -24 -7 -46 2 -89 19 -89 10 0 13 -6 9 -16 -3 -9 -6 -22
-6 -30 0 -8 -9 -14 -19 -14 -10 0 -21 -7 -25 -15 -3 -8 -11 -15 -19 -15 -8 0
-13 -10 -13 -22 1 -14 -6 -24 -16 -26 -12 -2 -18 3 -18 15 0 14 -4 12 -18 -9
-18 -30 -27 -34 -37 -18 -11 18 -26 11 -23 -11 2 -15 -4 -24 -21 -30 -19 -7
-22 -6 -17 6 10 27 -22 16 -44 -15 -12 -16 -29 -30 -38 -30 -22 -1 -52 -24
-52 -39 0 -8 -7 -10 -22 -5 -13 5 -36 8 -53 9 -23 0 -31 -5 -33 -22 -2 -15
-13 -24 -32 -28 -17 -4 -33 -11 -37 -17 -4 -7 0 -9 10 -5 14 5 17 0 17 -23 0
-26 -2 -28 -22 -21 -13 5 -23 15 -23 22 0 8 -4 20 -8 27 -6 8 -2 12 10 12 17
1 17 1 0 11 -10 6 -23 23 -28 37 -10 26 -11 26 -25 8 -19 -26 -19 1 -1 29 18
27 29 57 18 51 -5 -3 -12 2 -16 12 -7 16 -8 16 -14 -2 -7 -17 -8 -18 -14 -3
-3 9 -3 17 2 17 4 0 7 17 5 38 -2 20 -3 52 -3 70 -1 25 -5 32 -20 32 -28 0
-37 20 -12 27 12 3 21 9 21 14 0 14 -28 11 -33 -3 -2 -8 -8 -9 -13 -4 -5 5 -4
11 4 13 6 3 12 13 12 24 0 10 -6 19 -12 19 -7 0 -5 5 5 11 9 5 17 15 17 20 0
6 -4 7 -10 4 -6 -3 -7 1 -4 9 4 11 0 16 -14 16 -16 0 -19 6 -18 40 0 25 -5 44
-13 49 -11 7 -9 13 8 30 25 25 19 56 -9 41 -11 -6 -22 -15 -25 -20 -4 -6 -11
-8 -16 -5 -5 4 -9 -1 -9 -9 0 -9 -4 -16 -10 -16 -10 0 -14 16 -10 35 1 6 4 30
6 55 3 25 7 52 11 60 3 8 7 17 8 20 14 54 43 67 37 17z m-70 -35 c-7 -2 -12
-13 -12 -25 0 -17 -2 -19 -9 -8 -6 10 -4 22 7 37 10 12 19 17 21 11 2 -6 -1
-13 -7 -15z m1118 -22 c0 -5 -5 -10 -11 -10 -5 0 -7 5 -4 10 3 6 8 10 11 10 2
0 4 -4 4 -10z m-1249 -67 c-8 -15 -10 -15 -11 -2 0 17 10 32 18 25 2 -3 -1
-13 -7 -23z m4491 19 c-10 -7 -8 -12 5 -25 10 -8 22 -16 28 -16 5 0 11 -4 13
-10 2 -6 -3 -11 -11 -11 -9 0 -19 -9 -22 -20 -9 -27 -34 -25 -39 3 -13 63 -13
76 3 80 27 8 37 7 23 -1z m-4592 -82 c0 -5 -2 -10 -4 -10 -3 0 -8 5 -11 10 -3
6 -1 10 4 10 6 0 11 -4 11 -10z m-83 -32 c-3 -8 -6 -5 -6 6 -1 11 2 17 5 13 3
-3 4 -12 1 -19z m83 2 c0 -5 -4 -10 -10 -10 -5 0 -10 5 -10 10 0 6 5 10 10 10
6 0 10 -4 10 -10z m290 -1 c0 -11 -30 -12 -48 0 -9 5 -3 8 17 9 17 0 31 -4 31
-9z m990 4 c0 -5 -12 -13 -26 -20 -21 -10 -30 -10 -46 1 -19 14 -19 14 -1 19
30 8 73 8 73 0z m-76 -32 c3 -5 -1 -12 -10 -15 -25 -10 -34 -7 -34 9 0 16 35
21 44 6z m-906 -36 c-3 -3 -9 2 -12 12 -6 14 -5 15 5 6 7 -7 10 -15 7 -18z
m-403 6 c3 -5 1 -12 -5 -16 -5 -3 -10 1 -10 9 0 18 6 21 15 7z m-390 -48 c-5
-15 -9 -30 -9 -33 -1 -3 -5 -11 -9 -18 -11 -17 1 -52 18 -52 10 0 13 -12 10
-47 -3 -50 12 -82 48 -96 14 -5 26 -37 14 -37 -16 0 -76 38 -94 59 -34 39 -30
134 9 234 14 35 23 27 13 -10z m-37 -308 c-3 -3 -9 2 -12 12 -6 14 -5 15 5 6
7 -7 10 -15 7 -18z m2046 -127 c-3 -4 -12 -8 -20 -8 -8 0 -13 4 -10 8 3 5 12
9 20 9 8 0 13 -4 10 -9z m-963 -21 c-1 -12 -15 -9 -19 4 -3 6 1 10 8 8 6 -3
11 -8 11 -12z m1419 -63 c0 -8 -5 -12 -10 -9 -6 4 -8 11 -5 16 9 14 15 11 15
-7z m-2245 -134 c3 -5 -1 -10 -9 -10 -9 0 -16 5 -16 10 0 6 4 10 9 10 6 0 13
-4 16 -10z m1720 -50 c-5 -9 -105 2 -105 11 0 5 18 9 40 9 24 0 40 5 40 12 0
6 6 3 14 -7 8 -11 13 -22 11 -25z m52 -6 c-3 -3 -12 -4 -19 -1 -8 3 -5 6 6 6
11 1 17 -2 13 -5z m-556 -44 c5 0 9 -7 9 -15 0 -21 -9 -19 -31 8 -22 27 -25
45 -3 23 8 -9 20 -16 25 -16z m1119 0 c0 -5 -2 -10 -4 -10 -3 0 -8 5 -11 10
-3 6 -1 10 4 10 6 0 11 -4 11 -10z m-2348 -37 c-3 -16 -7 -22 -10 -15 -4 13 4
42 11 42 2 0 2 -12 -1 -27z m2136 10 c-2 -12 4 -19 20 -21 20 -3 29 -26 22
-57 -1 -5 -3 -23 -4 -39 0 -16 -9 -34 -19 -40 -16 -9 -22 -7 -34 12 -19 28
-33 28 -33 1 0 -11 -4 -17 -10 -14 -6 4 -10 -7 -10 -24 0 -17 5 -31 10 -31 6
0 10 -7 10 -15 0 -8 6 -15 13 -15 8 0 8 -3 1 -8 -15 -10 -25 -42 -14 -42 15 0
12 -26 -5 -40 -10 -9 -15 -9 -15 -1 0 6 -6 11 -14 11 -7 0 -19 7 -26 15 -7 8
-16 13 -20 10 -4 -3 -11 2 -14 11 -3 9 -12 14 -20 11 -16 -6 -36 32 -36 68 0
13 6 25 13 28 10 3 10 9 0 26 -17 28 -16 32 5 29 13 -2 16 3 14 20 -2 13 2 22
10 22 8 0 21 9 31 20 9 11 28 20 41 20 17 0 26 7 30 24 4 15 15 26 29 29 12 2
23 5 25 6 2 0 2 -7 0 -16z m-2098 -3 c0 -5 -4 -10 -10 -10 -5 0 -10 5 -10 10
0 6 5 10 10 10 6 0 10 -4 10 -10z m1207 -24 c-5 -16 -24 -18 -30 -4 -3 9 3 14
14 14 11 0 18 -5 16 -10z m116 -53 c-9 -13 -13 -26 -9 -30 3 -3 6 -1 6 6 0 7
5 9 10 6 6 -4 8 -10 5 -15 -3 -4 2 -10 10 -14 8 -3 15 -11 15 -18 0 -9 -3 -9
-10 2 -6 10 -12 12 -20 4 -7 -7 1 -14 25 -23 27 -9 35 -18 35 -36 0 -14 -7
-26 -19 -30 -10 -3 -21 -15 -24 -25 -3 -11 -12 -20 -21 -20 -19 0 -21 21 -4
38 8 8 9 12 1 12 -6 0 -13 -6 -16 -12 -3 -10 -7 -10 -20 1 -15 12 -15 15 5 30
15 12 18 20 10 25 -7 4 -12 1 -12 -8 0 -20 -16 -21 -24 -1 -3 8 -9 15 -13 14
-23 -4 -35 3 -30 16 8 19 -11 31 -26 16 -18 -18 -28 -13 -23 14 3 14 1 23 -3
21 -4 -3 -13 -1 -21 4 -11 7 -11 11 -1 24 11 14 15 14 28 1 19 -19 33 -19 33
0 0 8 5 15 10 15 6 0 10 -7 10 -15 0 -8 4 -15 8 -15 14 0 43 36 35 44 -4 4 1
4 11 0 14 -5 17 -4 12 4 -6 9 -1 9 18 1 24 -11 24 -13 9 -36z m-1360 -53 c-5
-19 -23 -29 -23 -12 0 7 20 32 26 32 1 0 0 -9 -3 -20z m2132 -58 c0 -18 -20
-15 -23 4 -3 10 1 15 10 12 7 -3 13 -10 13 -16z m332 -4 c-3 -8 -6 -5 -6 6 -1
11 2 17 5 13 3 -3 4 -12 1 -19z m-2434 -12 c12 -9 14 -16 7 -21 -12 -7 -40 11
-40 26 0 13 12 11 33 -5z m-9 -41 c3 -8 1 -15 -4 -15 -6 0 -10 -7 -10 -16 0
-21 -24 -12 -28 11 -6 29 31 47 42 20z m1466 -6 c0 -5 -11 -9 -25 -9 -17 0
-23 4 -19 14 6 15 44 10 44 -5z m502 -79 c9 -23 8 -23 -12 -5 -22 20 -27 39
-8 33 6 -2 15 -15 20 -28z m-1987 -9 c3 -16 28 -62 55 -102 131 -198 385 -414
875 -744 280 -188 339 -230 375 -262 14 -13 27 -23 30 -24 3 0 21 -2 40 -3 19
-2 56 -8 81 -14 47 -12 95 -9 164 10 67 18 95 30 95 42 0 16 39 38 52 30 6 -4
8 -3 5 3 -7 11 21 28 30 19 7 -7 -30 -45 -39 -40 -4 3 -8 -1 -8 -9 0 -8 -16
-29 -35 -46 -19 -17 -35 -35 -35 -41 0 -6 -4 -9 -9 -6 -4 3 -16 -3 -26 -14
-10 -11 -24 -16 -33 -12 -15 5 -15 4 -3 -11 9 -11 10 -17 2 -17 -10 0 -15 13
-13 32 1 3 -5 9 -13 12 -11 4 -15 -2 -15 -19 0 -16 -6 -25 -15 -25 -8 0 -14 5
-13 12 4 15 -90 34 -103 21 -13 -13 93 -83 125 -83 13 0 26 -5 28 -12 7 -21
116 82 202 192 106 135 116 150 116 174 0 18 -2 18 -26 -5 -17 -16 -25 -19
-23 -9 3 21 -11 51 -22 44 -5 -3 -6 3 -2 12 4 11 8 13 11 6 2 -7 8 -12 13 -12
6 0 7 5 4 10 -9 14 14 42 27 34 9 -6 24 7 57 49 7 9 15 39 17 65 7 101 15 134
29 128 8 -3 17 -1 20 4 4 6 -1 10 -9 10 -9 0 -16 5 -16 10 0 6 5 10 11 10 6 0
19 10 30 23 l18 22 1 -22 c0 -13 -5 -23 -11 -23 -5 0 -8 -4 -5 -9 4 -5 2 -20
-3 -34 -7 -17 -6 -28 2 -36 9 -9 12 -78 12 -239 0 -125 4 -390 9 -588 9 -343
6 -420 -13 -384 -5 8 -16 60 -25 115 -10 55 -21 124 -26 153 -17 98 -84 170
-222 238 -73 36 -78 37 -96 21 -11 -10 -44 -23 -75 -29 -50 -11 -58 -10 -76 6
-20 18 -22 18 -68 -20 -27 -21 -60 -50 -75 -65 -14 -15 -78 -70 -141 -123 -63
-52 -125 -108 -137 -123 l-21 -27 42 -38 c40 -36 42 -40 46 -105 2 -37 11
-111 21 -163 24 -135 27 -65 4 95 -11 72 -17 132 -15 135 3 3 9 -4 15 -15 6
-10 36 -46 67 -79 31 -34 70 -79 86 -101 17 -22 40 -50 52 -62 17 -18 20 -31
17 -65 -9 -74 -61 -263 -86 -308 -19 -33 -20 -57 -19 -514 0 -313 -3 -476 -9
-470 -5 5 -27 70 -49 144 -194 677 -347 1152 -469 1455 -64 160 -200 473 -244
560 -88 175 -203 393 -234 442 -52 81 -253 465 -283 540 -34 83 -61 187 -61
235 0 67 23 93 35 39z m5655 -360 c19 -10 45 -35 57 -56 20 -35 20 -41 7 -66
-30 -59 -104 -77 -174 -41 -28 14 -36 25 -43 59 -8 42 9 97 37 115 20 14 81 8
116 -11z m-681 -187 c24 -31 28 -99 7 -126 -14 -19 -43 -15 -89 13 -19 11 -24
19 -15 22 10 4 10 8 -2 17 -11 9 -12 13 -2 17 6 2 12 14 12 24 0 11 -4 17 -10
14 -5 -3 -10 -1 -10 5 0 6 14 13 30 17 17 3 33 10 36 14 9 15 22 10 43 -17z
m-3132 -450 c-3 -3 -12 -4 -19 -1 -8 3 -5 6 6 6 11 1 17 -2 13 -5z m-437 -85
c0 -5 -4 -9 -10 -9 -5 0 -10 7 -10 16 0 8 5 12 10 9 6 -3 10 -10 10 -16z m30
-29 c0 -5 -4 -10 -10 -10 -5 0 -10 5 -10 10 0 6 5 10 10 10 6 0 10 -4 10 -10z
m224 -464 c45 -25 104 -66 131 -91 l50 -46 -65 46 c-36 25 -71 50 -79 57 -8 7
-42 27 -75 45 -34 18 -57 33 -52 33 5 0 45 -20 90 -44z m-239 24 c3 -5 1 -10
-4 -10 -6 0 -11 5 -11 10 0 6 2 10 4 10 3 0 8 -4 11 -10z m35 -20 c0 -5 -2
-10 -4 -10 -3 0 -8 5 -11 10 -3 6 -1 10 4 10 6 0 11 -4 11 -10z m124 -51 c5
-5 -4 -5 -21 0 -34 10 -73 29 -73 36 0 6 82 -26 94 -36z m92 -52 c81 -54 114
-80 114 -90 0 -5 -10 -2 -22 7 -13 8 -53 36 -90 61 -38 25 -68 48 -68 50 0 12
21 3 66 -28z m273 -101 c42 -22 51 -38 76 -133 12 -49 36 -126 53 -173 24 -67
31 -109 36 -200 6 -99 17 -208 31 -300 22 -150 42 -272 65 -410 16 -91 32
-205 35 -255 3 -49 8 -112 10 -140 5 -60 -60 238 -75 345 -31 216 -103 472
-128 456 -5 -3 -12 18 -15 47 -3 29 -13 71 -22 93 -15 35 -18 37 -25 19 -7
-15 -9 -10 -9 23 -1 37 -77 244 -102 277 -19 25 16 365 38 365 2 0 16 -6 32
-14z m-248 -232 c30 -15 48 -29 41 -31 -11 -4 -102 42 -102 52 0 8 3 7 61 -21z
m116 -143 c-4 -16 -2 -31 3 -33 5 -2 2 -12 -6 -22 -14 -20 -14 -20 -14 0 0 11
-5 25 -11 31 -8 8 -8 17 0 32 17 31 35 26 28 -8z m-146 -183 c-8 -22 -26 -21
-27 2 -1 23 5 30 21 24 9 -4 11 -12 6 -26z m12 -36 c7 -10 -32 -57 -40 -48 -3
3 -1 17 5 31 11 25 26 32 35 17z m0 -57 c-3 -9 -8 -14 -10 -11 -3 3 -2 9 2 15
9 16 15 13 8 -4z m231 -217 c-4 -13 -8 -39 -9 -59 -2 -41 -23 -73 -150 -234
-47 -60 -134 -172 -193 -247 -58 -75 -110 -134 -115 -131 -5 3 -4 10 2 16 7 7
6 14 -6 22 -20 15 -12 30 68 133 33 42 79 102 101 132 23 30 69 89 102 130 34
41 93 117 131 167 39 51 71 93 73 93 2 0 0 -10 -4 -22z m27 -201 c-10 -9 -11
-8 -5 6 3 10 9 15 12 12 3 -3 0 -11 -7 -18z m-63 -18 c-18 -34 -151 -209 -192
-252 -19 -20 -32 -38 -30 -39 2 -2 -7 -16 -20 -30 -12 -15 -31 -39 -42 -53
-39 -54 -73 -89 -79 -83 -4 4 77 115 180 248 103 132 189 239 192 237 2 -2 -2
-15 -9 -28z m37 -26 l-18 -28 28 25 28 25 -22 -40 c-36 -65 -121 -176 -130
-171 -5 3 -8 0 -7 -8 1 -15 -204 -290 -211 -282 -3 2 3 17 12 33 l17 28 -21
-25 c-11 -14 -19 -31 -16 -38 4 -10 -81 -129 -126 -176 -22 -23 -7 15 17 43
14 17 22 31 17 31 -4 0 -1 5 7 10 9 6 10 10 3 10 -6 0 -21 -12 -32 -28 -16
-21 -20 -23 -21 -9 0 10 7 20 15 23 8 3 17 14 20 24 4 12 12 17 23 14 15 -5
15 -4 2 5 -9 7 -11 14 -5 19 6 4 26 28 45 55 19 26 72 96 117 155 46 59 91
117 100 130 19 25 44 55 71 87 10 11 33 41 51 68 36 50 66 66 36 20z m1827
-204 c-3 -47 -8 -59 -44 -96 -22 -22 -54 -66 -72 -97 -66 -119 -222 -244 -422
-338 -45 -21 -85 -38 -88 -38 -3 0 -6 36 -6 79 l0 79 48 28 c135 78 366 239
408 285 86 92 159 159 169 155 6 -2 9 -27 7 -57z m-1677 -179 c3 -5 1 -10 -4
-10 -6 0 -11 5 -11 10 0 6 2 10 4 10 3 0 8 -4 11 -10z m-19 -37 c-24 -61 -228
-349 -246 -345 -6 1 -10 -4 -8 -11 4 -17 -127 -197 -142 -197 -6 0 -8 -4 -5
-10 3 -5 -1 -10 -10 -10 -8 0 -18 -8 -22 -17 -6 -18 -38 -53 -48 -53 -3 0 0 9
7 19 7 11 16 17 20 15 4 -3 8 1 8 8 0 8 27 50 60 93 33 44 95 130 139 190 43
61 88 120 100 132 12 12 21 24 21 26 0 12 94 142 101 140 8 -3 13 11 10 30 0
4 4 7 10 7 6 0 8 -7 5 -17z m-560 -68 c-15 -19 -32 -35 -39 -34 -9 0 -9 2 1 6
6 2 12 10 12 16 0 13 42 59 48 52 3 -2 -7 -20 -22 -40z m651 -533 c-19 -33
-38 -70 -42 -82 -7 -21 -8 -21 -17 -6 -7 12 -2 26 21 55 17 21 31 42 31 45 0
12 33 57 37 52 3 -2 -11 -31 -30 -64z m-567 -66 c0 -2 -8 -10 -17 -17 -16 -13
-17 -12 -4 4 13 16 21 21 21 13z"/>
<path d="M6222 5900 c0 -14 2 -19 5 -12 2 6 2 18 0 25 -3 6 -5 1 -5 -13z"/>
<path d="M6242 5700 c0 -14 2 -19 5 -12 2 6 2 18 0 25 -3 6 -5 1 -5 -13z"/>
<path d="M6272 5700 c0 -14 2 -19 5 -12 2 6 2 18 0 25 -3 6 -5 1 -5 -13z"/>
<path d="M2601 5511 c-7 -5 -11 -15 -9 -22 3 -10 8 -7 17 9 13 24 12 26 -8 13z"/>
<path d="M2367 5493 c-12 -11 -8 -21 12 -26 14 -3 17 0 14 14 -5 20 -15 24
-26 12z"/>
<path d="M2306 5444 c-5 -14 -4 -15 9 -4 17 14 19 20 6 20 -5 0 -12 -7 -15
-16z"/>
<path d="M2400 5365 c0 -9 5 -15 11 -13 6 2 11 8 11 13 0 5 -5 11 -11 13 -6 2
-11 -4 -11 -13z"/>
<path d="M2450 4995 c0 -8 5 -15 10 -15 6 0 10 7 10 15 0 8 -4 15 -10 15 -5 0
-10 -7 -10 -15z"/>
<path d="M2685 4920 c-3 -5 -1 -10 4 -10 6 0 11 5 11 10 0 6 -2 10 -4 10 -3 0
-8 -4 -11 -10z"/>
<path d="M2640 4880 c0 -5 5 -10 11 -10 5 0 7 5 4 10 -3 6 -8 10 -11 10 -2 0
-4 -4 -4 -10z"/>
<path d="M2685 4880 c-8 -13 5 -13 25 0 13 8 13 10 -2 10 -9 0 -20 -4 -23 -10z"/>
<path d="M3876 4341 c-9 -14 4 -41 21 -41 9 0 13 8 11 22 -3 23 -23 35 -32 19z"/>
<path d="M3797 4323 c-10 -10 -8 -75 2 -69 5 3 11 22 13 41 4 34 -1 43 -15 28z"/>
<path d="M3090 4380 c0 -5 5 -10 10 -10 6 0 10 5 10 10 0 6 -4 10 -10 10 -5 0
-10 -4 -10 -10z"/>
<path d="M3040 4290 c0 -5 9 -10 21 -10 11 0 17 5 14 10 -3 6 -13 10 -21 10
-8 0 -14 -4 -14 -10z"/>
<path d="M3120 4246 c0 -2 7 -7 16 -10 8 -3 12 -2 9 4 -6 10 -25 14 -25 6z"/>
<path d="M3460 928 c-12 -22 -12 -22 6 -6 10 10 15 20 12 24 -4 3 -12 -5 -18
-18z"/>
<path d="M3395 849 c-4 -6 -5 -12 -2 -15 2 -3 7 2 10 11 7 17 1 20 -8 4z"/>
<path d="M4658 7753 c7 -3 16 -2 19 1 4 3 -2 6 -13 5 -11 0 -14 -3 -6 -6z"/>
<path d="M4738 7742 c-4 -15 -1 -18 19 -14 13 2 23 5 21 6 -2 1 -10 7 -19 14
-14 10 -17 9 -21 -6z"/>
<path d="M4705 7740 c-3 -5 -1 -10 4 -10 6 0 11 5 11 10 0 6 -2 10 -4 10 -3 0
-8 -4 -11 -10z"/>
<path d="M4877 7700 c3 -11 9 -17 14 -14 14 8 10 34 -5 34 -9 0 -12 -7 -9 -20z"/>
<path d="M5050 7560 c0 -5 5 -10 10 -10 6 0 10 5 10 10 0 6 -4 10 -10 10 -5 0
-10 -4 -10 -10z"/>
<path d="M5085 7510 c-3 -5 1 -10 9 -10 9 0 16 5 16 10 0 6 -4 10 -9 10 -6 0
-13 -4 -16 -10z"/>
<path d="M2845 6760 c-3 -5 1 -10 9 -10 9 0 16 5 16 10 0 6 -4 10 -9 10 -6 0
-13 -4 -16 -10z"/>
<path d="M2805 6660 c3 -5 8 -10 11 -10 2 0 4 5 4 10 0 6 -5 10 -11 10 -5 0
-7 -4 -4 -10z"/>
<path d="M156 6627 c3 -10 9 -15 12 -12 3 3 0 11 -7 18 -10 9 -11 8 -5 -6z"/>
<path d="M2850 6621 c0 -5 -3 -17 -7 -27 -4 -12 -2 -15 8 -12 15 5 22 48 8 48
-5 0 -9 -4 -9 -9z"/>
<path d="M411 6576 c-7 -8 -15 -30 -18 -50 -5 -29 -3 -36 11 -36 10 0 14 -5
10 -11 -4 -7 -1 -10 7 -7 8 3 13 12 11 21 -3 20 18 34 27 18 11 -18 40 -2 47
25 3 13 10 24 15 24 5 0 9 5 9 10 0 20 -31 9 -42 -15 -11 -25 -28 -34 -28 -15
0 6 5 10 10 10 6 0 10 10 10 23 0 21 -1 21 -24 -6 -15 -17 -30 -26 -37 -22 -8
6 -7 10 5 17 17 10 22 28 7 28 -5 0 -14 -6 -20 -14z m9 -56 c0 -5 -4 -10 -10
-10 -5 0 -10 5 -10 10 0 6 5 10 10 10 6 0 10 -4 10 -10z"/>
<path d="M2760 6565 c0 -8 4 -15 10 -15 5 0 7 7 4 15 -4 8 -8 15 -10 15 -2 0
-4 -7 -4 -15z"/>
<path d="M109 6533 c-12 -33 -12 -40 7 -47 27 -10 36 -7 29 13 -3 11 -1 22 5
26 5 3 10 1 10 -6 0 -10 3 -10 11 -2 15 15 5 30 -27 36 -20 3 -27 0 -35 -20z"/>
<path d="M460 6410 c0 -5 5 -10 11 -10 5 0 7 5 4 10 -3 6 -8 10 -11 10 -2 0
-4 -4 -4 -10z"/>
<path d="M1418 6393 c7 -3 16 -2 19 1 4 3 -2 6 -13 5 -11 0 -14 -3 -6 -6z"/>
<path d="M1245 6369 c4 -10 2 -19 -4 -19 -11 0 -10 -35 2 -46 4 -4 7 -20 7
-36 0 -43 26 -36 28 8 1 20 6 42 13 50 20 24 7 57 -24 60 -24 2 -27 0 -22 -17z"/>
<path d="M1401 6370 c-19 -11 5 -23 25 -12 14 8 14 10 2 15 -8 3 -21 2 -27 -3z"/>
<path d="M610 6340 c0 -5 5 -10 10 -10 6 0 10 5 10 10 0 6 -4 10 -10 10 -5 0
-10 -4 -10 -10z"/>
<path d="M1406 6325 c4 -9 19 -15 36 -15 17 0 27 4 23 10 -4 6 -10 8 -15 5 -5
-3 -11 -1 -15 5 -10 16 -35 12 -29 -5z"/>
<path d="M675 6321 c5 -9 -4 -11 -32 -9 l-38 3 -1 -49 c-1 -26 -7 -52 -14 -56
-9 -5 -9 -9 -1 -14 6 -4 11 -19 11 -33 0 -23 3 -25 32 -19 45 9 59 24 52 55
-4 14 -11 30 -15 36 -14 14 -11 31 3 17 15 -15 42 -16 32 -1 -4 7 -7 26 -8 42
-1 17 -7 32 -15 35 -9 3 -11 0 -6 -7z"/>
<path d="M1400 6265 c0 -34 1 -35 38 -35 36 0 39 2 40 29 0 24 -4 30 -30 35
-47 9 -48 8 -48 -29z"/>
<path d="M507 6284 c-4 -4 -7 -15 -7 -25 0 -9 -6 -19 -12 -22 -7 -2 -11 -7 -8
-10 3 -3 16 2 29 12 18 14 21 22 14 35 -5 9 -12 13 -16 10z"/>
<path d="M501 6196 c-6 -8 -10 -20 -9 -27 3 -16 -33 -13 -43 3 -5 7 -16 7 -35
0 -18 -7 -22 -11 -11 -11 14 -1 16 -5 7 -21 -14 -27 17 -44 56 -30 21 8 29 8
35 -2 6 -10 15 -6 34 14 30 32 32 41 6 33 -21 -6 -38 10 -21 20 12 8 13 35 1
35 -5 0 -14 -6 -20 -14z"/>
<path d="M124 6145 c-4 -22 -2 -41 6 -50 7 -8 9 -15 5 -15 -4 0 -2 -7 5 -15
11 -13 16 -13 48 1 20 8 44 21 52 29 9 8 31 15 48 15 18 0 32 5 32 11 0 7 -16
10 -42 7 -26 -3 -51 1 -64 9 -19 12 -24 12 -37 -1 -14 -14 -16 -12 -26 14 -13
39 -19 38 -27 -5z"/>
<path d="M90 6090 c0 -5 5 -10 10 -10 6 0 10 5 10 10 0 6 -4 10 -10 10 -5 0
-10 -4 -10 -10z"/>
<path d="M3478 5713 c7 -3 16 -2 19 1 4 3 -2 6 -13 5 -11 0 -14 -3 -6 -6z"/>
<path d="M100 5620 c0 -5 5 -10 10 -10 6 0 10 5 10 10 0 6 -4 10 -10 10 -5 0
-10 -4 -10 -10z"/>
<path d="M3515 5601 c-3 -6 3 -9 14 -8 11 0 17 5 15 9 -7 11 -22 10 -29 -1z"/>
<path d="M74 5584 c3 -9 6 -22 6 -30 0 -8 7 -14 16 -14 10 0 14 -6 10 -15 -4
-10 1 -15 14 -15 13 0 18 5 14 15 -4 8 -1 15 5 15 6 0 11 -5 11 -12 0 -9 3 -9
13 1 10 10 8 15 -7 26 -16 12 -17 17 -6 30 10 13 9 15 -9 15 -12 0 -24 -7 -27
-15 -4 -8 -10 -15 -15 -15 -5 0 -9 7 -9 15 0 8 -5 15 -11 15 -6 0 -8 -7 -5
-16z"/>
<path d="M3485 5590 c-3 -5 -1 -10 4 -10 6 0 11 5 11 10 0 6 -2 10 -4 10 -3 0
-8 -4 -11 -10z"/>
<path d="M3460 5545 c0 -8 -9 -15 -19 -15 -27 0 -32 -12 -14 -35 15 -20 15
-19 10 3 -5 20 -2 23 14 19 10 -3 19 -1 19 3 0 5 3 15 6 24 3 9 1 16 -5 16 -6
0 -11 -7 -11 -15z"/>
<path d="M1355 5229 c-29 -9 -75 -17 -104 -18 -8 -1 -11 -4 -8 -8 4 -3 -1 -12
-11 -19 -16 -13 -16 -13 1 -14 21 0 23 -20 2 -20 -9 0 -15 -6 -14 -12 4 -31
-2 -47 -21 -53 -11 -4 -18 -11 -14 -16 3 -5 9 -7 14 -4 5 3 11 1 15 -5 3 -6
-4 -14 -16 -18 -19 -7 -20 -10 -6 -15 10 -4 17 -1 17 6 0 7 5 5 10 -4 9 -15
20 -17 155 -22 45 -1 57 9 49 48 -3 18 -9 66 -12 106 -4 40 -11 73 -17 75 -5
1 -23 -2 -40 -7z"/>
<path d="M622 5096 c-13 -18 -16 -136 -3 -136 6 0 11 4 11 8 0 5 6 9 14 9 8 0
30 7 50 17 20 9 40 15 45 11 12 -7 61 15 61 27 0 5 10 6 23 3 13 -5 18 -4 12
2 -5 5 -32 15 -60 22 -27 6 -52 16 -55 21 -10 16 -88 29 -98 16z"/>
<path d="M940 5075 c-7 -8 -19 -15 -26 -15 -31 0 -11 -18 27 -24 48 -8 77 8
58 30 -6 8 -16 11 -21 8 -6 -4 -14 -1 -18 5 -5 9 -10 8 -20 -4z"/>
<path d="M4131 4724 c0 -11 3 -14 6 -6 3 7 2 16 -1 19 -3 4 -6 -2 -5 -13z"/>
<path d="M4076 4677 c3 -10 9 -15 12 -12 3 3 0 11 -7 18 -10 9 -11 8 -5 -6z"/>
<path d="M4176 4604 c-3 -9 -1 -23 5 -32 9 -15 10 -15 6 -1 -3 9 -1 21 5 27 6
6 6 12 0 16 -5 3 -13 -1 -16 -10z"/>
<path d="M4110 4581 c0 -10 19 -25 25 -20 1 2 -3 10 -11 17 -8 7 -14 8 -14 3z"/>
<path d="M4151 4478 c-1 -15 4 -30 9 -33 12 -7 12 12 0 40 -8 18 -9 17 -9 -7z"/>
<path d="M4162 4408 c5 -15 28 -23 28 -10 0 5 -7 13 -16 16 -10 4 -14 1 -12
-6z"/>
</g>
</svg>
